<svg width="250" height="200" viewBox="0 0 250 200" xmlns="http://www.w3.org/2000/svg">
  <rect width="250" height="200" fill="#0F172A"/>
  <g transform="translate(50, 30)">
    <!-- Person -->
    <circle cx="55" cy="45" r="25" fill="#00A99D"/>
    <!-- Face expression -->
    <circle cx="47" cy="40" r="3" fill="#0F172A"/>
    <circle cx="63" cy="40" r="3" fill="#0F172A"/>
    <path d="M47 53 Q55 58 63 53" stroke="#0F172A" fill="none" stroke-width="2"/>
    
    <!-- AI Interface -->
    <rect x="90" y="20" width="70" height="100" rx="5" fill="#172232" stroke="#00A99D" stroke-width="2"/>
    
    <!-- Screen elements -->
    <rect x="100" y="30" width="50" height="6" rx="3" fill="#00C6AD" opacity="0.7"/>
    
    <rect x="100" y="45" width="20" height="4" rx="2" fill="#F8FAFC" opacity="0.6"/>
    <rect x="100" y="55" width="50" height="4" rx="2" fill="#F8FAFC" opacity="0.3"/>
    <rect x="100" y="63" width="40" height="4" rx="2" fill="#F8FAFC" opacity="0.3"/>
    
    <rect x="100" y="75" width="20" height="4" rx="2" fill="#F8FAFC" opacity="0.6"/>
    <rect x="100" y="85" width="50" height="4" rx="2" fill="#F8FAFC" opacity="0.3"/>
    <rect x="100" y="93" width="40" height="4" rx="2" fill="#F8FAFC" opacity="0.3"/>
    
    <rect x="100" y="110" width="50" height="6" rx="3" fill="#00C6AD" opacity="0.5"/>
    
    <!-- Connection line -->
    <path d="M80 45 C 85 45, 85 45, 90 45" stroke="#00C6AD" stroke-width="2" stroke-dasharray="2,2"/>
    
    <!-- AI Symbol -->
    <text x="135" y="15" font-size="12" fill="#00C6AD">🤖</text>
    
    <!-- Happy face -->
    <text x="30" y="30" font-size="12" fill="#00C6AD">😊</text>
  </g>
</svg>
