<svg width="40" height="40" viewBox="0 0 40 40" fill="none" xmlns="http://www.w3.org/2000/svg">
  <rect width="40" height="40" rx="4" fill="currentColor" fill-opacity="0.1"/>
  <path d="M20 8C13.373 8 8 13.373 8 20C8 26.627 13.373 32 20 32C26.627 32 32 26.627 32 20C32 13.373 26.627 8 20 8ZM20 30C14.477 30 10 25.523 10 20C10 14.477 14.477 10 20 10C25.523 10 30 14.477 30 20C30 25.523 25.523 30 20 30Z" fill="currentColor"/>
  <path d="M19 14V17H21V14H19ZM19 19V26H21V19H19Z" fill="currentColor"/>
  <path d="M13 22H27V24H13V22Z" fill="currentColor"/>
</svg>
