<svg width="250" height="200" viewBox="0 0 250 200" xmlns="http://www.w3.org/2000/svg">
  <rect width="250" height="200" fill="#0F172A"/>
  <g transform="translate(50, 30)">
    <!-- Person -->
    <circle cx="75" cy="45" r="30" fill="#FF6B6B"/>
    <!-- Face expression -->
    <circle cx="65" cy="40" r="3" fill="#0F172A"/>
    <circle cx="85" cy="40" r="3" fill="#0F172A"/>
    <path d="M65 55 Q75 50 85 55" stroke="#0F172A" fill="none" stroke-width="2"/>
    
    <!-- Papers/CVs -->
    <rect x="25" y="90" width="35" height="45" fill="#F8FAFC" rx="2"/>
    <rect x="30" y="100" width="25" height="2" fill="#64748B"/>
    <rect x="30" y="105" width="20" height="2" fill="#64748B"/>
    <rect x="30" y="110" width="15" height="2" fill="#64748B"/>
    
    <rect x="65" y="85" width="35" height="45" fill="#F8FAFC" rx="2"/>
    <rect x="70" y="95" width="25" height="2" fill="#64748B"/>
    <rect x="70" y="100" width="20" height="2" fill="#64748B"/>
    <rect x="70" y="105" width="15" height="2" fill="#64748B"/>
    
    <rect x="105" y="90" width="35" height="45" fill="#F8FAFC" rx="2"/>
    <rect x="110" y="100" width="25" height="2" fill="#64748B"/>
    <rect x="110" y="105" width="20" height="2" fill="#64748B"/>
    <rect x="110" y="110" width="15" height="2" fill="#64748B"/>
    
    <!-- Stress symbols -->
    <text x="50" y="30" font-size="15" fill="#FF6B6B">💢</text>
    <text x="95" y="25" font-size="15" fill="#FF6B6B">😫</text>
  </g>
</svg>
